# xmcd
#
# Track frame offsets: 
#        150
#        19328
#        37801
#        59727
#        76595
#        95083
#        114996
#        140750
#        164627
#        187288
#        209397
#        230680
#        246164
#        263915
#        291270
#
# Disc length: 4150 seconds
#
# Revision: 0
# Processed by: cddbd v1.5.2PL0 Copyright (c) Steve Scherf et al.
# Submitted via: ExactAudioCopy v1.0b6
#
DISCID=e410340f
DTITLE=群星 - TEST-CD试音极品NO.36 CD-B 流行人声典范
DYEAR=2015
DGENRE=STE
TTITLE0=天空之城
TTITLE1=时间煮雨
TTITLE2=斑马 斑马
TTITLE3=郎啊郎
TTITLE4=预谋
TTITLE5=夜空中最亮的星
TTITLE6=你是我心爱的姑娘
TTITLE7=多情的人不该相遇
TTITLE8=假如爱有天意
TTITLE9=一段情歌一段伤
TTITLE10=美丽的草原美丽的姑娘
TTITLE11=玛尼情歌
TTITLE12=致青春
TTITLE13=山丘
TTITLE14=不知道你喜不喜欢这样的我
EXTD=
EXTT0=
EXTT1=
EXTT2=
EXTT3=
EXTT4=
EXTT5=
EXTT6=
EXTT7=
EXTT8=
EXTT9=
EXTT10=
EXTT11=
EXTT12=
EXTT13=
EXTT14=
PLAYORDER=
